<?xml version="1.0" encoding="UTF-8"?>
<svg id="Capa_1" xmlns="http://www.w3.org/2000/svg" version="1.1" viewBox="0 0 800 800">
  <!-- Generator: Adobe Illustrator 29.0.0, SVG Export Plug-In . SVG Version: 2.1.0 Build 186)  -->
  <defs>
    <style>
      .st0 {
        fill: #fff;
      }
    </style>
  </defs>
  <path class="st0" d="M403.8,376.8c-118.6-.2-224-22.8-291.2-57.7-.2.5-.4,1.1-.5,1.6,67.6,34.1,172.3,56.1,289.8,56.1s1.3,0,1.9,0Z"/>
  <path class="st0" d="M396.2,539c-109.7-.2-208-19.5-275.3-50-.2.5-.3,1-.5,1.4,67.6,29.9,165.3,48.6,274,48.6s1.2,0,1.8,0Z"/>
  <path class="st0" d="M684.7,484.6c3.5,7.1,5.3,14.5,5.3,22,0,63.3-128,114.6-286.2,115,.6,0,1.2,0,1.9,0,159.1,0,288.1-51.5,288.1-115s-2.1-15.9-6-23.5c-1,.5-2,1-3,1.5Z"/>
  <path class="st0" d="M36.3,549.5c0-28,19.6-54.3,53.7-76.6-38.7-23.3-61.2-51.2-61.2-81.3s23.9-59.6,64.7-83.4c-36.2-22.8-57.2-49.8-57.2-78.8,0-81.2,164.3-147,367.4-147.4-.6,0-1.2,0-1.9,0-204,0-369.3,66-369.3,147.4s21,56,57.2,78.8c-40.8,23.7-64.7,52.4-64.7,83.4s22.5,58,61.2,81.3c-34.1,22.3-53.7,48.5-53.7,76.6,0,81.4,165.3,147.4,369.3,147.4s1.2,0,1.9,0c-203.1-.4-367.4-66.2-367.4-147.4Z"/>
  <path class="st0" d="M589.4,419.3c-1.8.6-3.5,1.3-5.3,1.9-50.3,17.6-115.9,28.3-187.8,28.4.6,0,1.3,0,1.9,0,72.6,0,139-10.7,189.7-28.4,1.8-.6,3.6-1.3,5.3-1.9,57.2-21,93.1-51.2,93.1-84.7s-.3-6-.9-9c-1.1.5-2.3,1-3.5,1.6.4,2.5.6,4.9.6,7.4,0,33.5-35.9,63.6-93.1,84.7Z"/>
  <path class="st0" d="M681.9,327.2c0-.5-.2-1-.3-1.6-67.3,31.2-166.8,50.9-277.8,51.2.6,0,1.2,0,1.8,0,109.9,0,208.6-19.2,276.3-49.6Z"/>
  <path class="st0" d="M206.9,422c1.3.4,2.6.9,3.9,1.3,49.8,16.5,113.8,26.4,183.6,26.4s1.2,0,1.8,0c-69-.2-132.3-10-181.7-26.4-1.3-.4-2.6-.9-3.9-1.3-61.6-21.1-100.6-52.4-100.6-87.3s.7-9.3,2.1-13.9c-1.1-.5-2.2-1.1-3.2-1.6-1.7,5.1-2.6,10.2-2.6,15.5,0,34.9,39,66.2,100.6,87.3Z"/>
  <path class="st0" d="M713.7,468.2c34.1-22.3,53.7-48.5,53.7-76.6s-21-56-57.2-78.8c40.8-23.7,64.7-52.4,64.7-83.4,0-81.4-165.3-147.4-369.3-147.4s-1.2,0-1.9,0c203.1.4,367.4,66.2,367.4,147.4s-23.9,59.6-64.7,83.4c36.2,22.8,57.2,49.8,57.2,78.8s-19.6,54.3-53.7,76.6c38.7,23.3,61.2,51.2,61.2,81.3,0,81.2-164.3,147-367.4,147.4.6,0,1.2,0,1.9,0,204,0,369.3-66,369.3-147.4s-22.5-58-61.2-81.3Z"/>
  <path class="st0" d="M684.7,484.6c-.2-.5-.5-1-.7-1.5-67.3,33.9-171.1,55.7-287.8,55.9.6,0,1.3,0,1.9,0,115.6,0,218.8-21.2,286.5-54.5Z"/>
  <path class="st0" d="M117.5,506.6c0-5.5,1-10.9,2.9-16.2-1.1-.5-2.2-.9-3.2-1.4-2.2,5.8-3.4,11.6-3.4,17.6,0,63.5,129,115,288.1,115s1.2,0,1.9,0c-158.3-.4-286.2-51.7-286.2-115Z"/>
  <path class="st0" d="M771.2,549.5c0-30-22.5-58-61.2-81.3,34.1-22.3,53.7-48.5,53.7-76.6s-21-56-57.2-78.8c40.8-23.7,64.7-52.4,64.7-83.4,0-81.2-164.3-147-367.4-147.4-203.1.4-367.4,66.2-367.4,147.4s21,56,57.2,78.8c-40.8,23.7-64.7,52.4-64.7,83.4s22.5,58,61.2,81.3c-34.1,22.3-53.7,48.5-53.7,76.6,0,81.2,164.3,147,367.4,147.4,203.1-.4,367.4-66.2,367.4-147.4ZM227.3,244.1c21.2,4.4,25.5,4.3,55.8-11.8l127.8-67.9c26.6-14.2,26.3-16,9.7-21.7l11.5-6,78.2,18.9-11.6,6.4c-21.9-3.2-26.4-3-53.1,11.5l-55.2,29.9c7.5.4,19.1-.7,38.2-4,40.3-7.3,69.8-13.9,90.3-18.6,16.5-3.9,19.6-7,8.8-11.2l-4.6-1.6,11.6-6.5,74.2,17.9-11.6,6.8c-22.9-3.3-35-5-74.5,2.9-24.1,4.7-54,10.3-81.8,15.9-12.6,21.3-28.2,48.4-41.2,74.8-7,13.4-5.9,16.1,5.9,22.6l-13.8,8-56.1-18.6c9.5-15.6,29.2-47.1,45.5-72,4.7-7.2,2.6-9.5-2.6-10.1l-61.4,33.3c-30.5,16.5-29.8,17.7-13.5,26.2l-13.6,7.5-76.3-25.4,13.4-7ZM108.9,319.1c1.1.6,2.2,1.1,3.2,1.6.2-.5.3-1.1.5-1.6,67.2,34.9,172.6,57.5,291.2,57.7,111-.2,210.5-20,277.8-51.2.1.5.2,1,.3,1.6,1.2-.5,2.3-1,3.5-1.6.6,3,.9,6,.9,9,0,33.5-35.9,63.6-93.1,84.7-1.8.6-3.5,1.3-5.3,1.9-50.7,17.7-117,28.4-189.7,28.4s-1.3,0-1.9,0c-.6,0-1.2,0-1.8,0-69.8,0-133.7-9.9-183.6-26.4-1.3-.4-2.6-.9-3.9-1.3-61.6-21.1-100.6-52.4-100.6-87.3s.9-10.4,2.6-15.5ZM405.6,621.6c-.6,0-1.2,0-1.9,0-.6,0-1.2,0-1.9,0-159.1,0-288.1-51.5-288.1-115s1.2-11.9,3.4-17.6c1.1.5,2.2,1,3.2,1.4.2-.5.3-1,.5-1.4,67.3,30.5,165.6,49.8,275.3,50,116.6-.2,220.5-22,287.8-55.9.3.5.5,1,.7,1.5,1-.5,2-1,3-1.5,4,7.6,6,15.5,6,23.5,0,63.5-129,115-288.1,115Z"/>
</svg>